# xmcd CD database file
#
# Track frame offsets:
#	151
#	18548
#	32164
#	48289
#	70897
#	85887
#	105886
#	126849
#	144259
#	161220
#	173532
#	189586
#	213687
#
# Disc length: 3009 seconds
#
# Revision: 1
# Processed by: cddbd v1.5PL3 Copyright (c) Steve Scherf et al.
# Submitted via: CDex 1.51
#
DISCID=ae0bbf0d
DTITLE=Caterina Valente - Girltalk
DYEAR=1900
DGENRE=Jazz
TTITLE0=Chiquilin De Bachin
TTITLE1=Martina(Les Enfants Qui Pleurent)
TTITLE2=And So It Goes
TTITLE3=Gigi
TTITLE4=Prelude No.3
TTITLE5=With ASong In My Heart
TTITLE6=Andantino(Sonata In C-Minor) The Most Beautiful Sea
TTITLE7=The Way We Were
TTITLE8=All Of A Sudden My Heart Sings
TTITLE9=Tout Ca (Count Every Star)
TTITLE10=Eu Nao Existe
TTITLE11=Bolero
TTITLE12=Papa N'as Pas Voulu
EXTD=
EXTT0=
EXTT1=
EXTT2=
EXTT3=
EXTT4=
EXTT5=
EXTT6=
EXTT7=
EXTT8=
EXTT9=
EXTT10=
EXTT11=
EXTT12=
PLAYORDER=
